REM DIRINDEX 1\2,1\3,1\4,1\5\6,1\5\7,1\8
REM DIRNAME folder01,folder02,folder03,folder04,folder05,folder06,folder07,folder08
TITLE ""
FILE "131 【131】Unit7 (DATA FILE_語彙力を高める接頭辞・接尾辞1).mp3" MP3
  TRACK 01 AUDIO
    TITLE "0:"
    INDEX 01 00:00:00
  TRACK 02 AUDIO
    TITLE "8:cjc115_5082"
    INDEX 01 00:00:07
  TRACK 03 AUDIO
    TITLE "0:"
    INDEX 01 00:01:36
  TRACK 04 AUDIO
    TITLE "6:cjc115_5083"
    INDEX 01 00:02:10
  TRACK 05 AUDIO
    TITLE "0:"
    INDEX 01 00:03:59
  TRACK 06 AUDIO
    TITLE "7:cjc115_5084"
    INDEX 01 00:03:68
  TRACK 07 AUDIO
    TITLE "0:"
    INDEX 01 00:06:47
  TRACK 08 AUDIO
    TITLE "6:cjc115_5085"
    INDEX 01 00:07:56
  TRACK 09 AUDIO
    TITLE "0:"
    INDEX 01 00:08:72
  TRACK 10 AUDIO
    TITLE "7:cjc115_5086"
    INDEX 01 00:09:02
  TRACK 11 AUDIO
    TITLE "0:"
    INDEX 01 00:10:10
  TRACK 12 AUDIO
    TITLE "6:cjc115_5087"
    INDEX 01 00:11:27
  TRACK 13 AUDIO
    TITLE "0:"
    INDEX 01 00:12:63
  TRACK 14 AUDIO
    TITLE "7:cjc115_5088"
    INDEX 01 00:12:65
  TRACK 15 AUDIO
    TITLE "0:"
    INDEX 01 00:14:17
  TRACK 16 AUDIO
    TITLE "6:cjc115_5089"
    INDEX 01 00:15:27
  TRACK 17 AUDIO
    TITLE "0:"
    INDEX 01 00:16:63
  TRACK 18 AUDIO
    TITLE "7:cjc115_5090"
    INDEX 01 00:16:69
  TRACK 19 AUDIO
    TITLE "0:"
    INDEX 01 00:18:39
  TRACK 20 AUDIO
    TITLE "6:cjc115_5091"
    INDEX 01 00:19:48
  TRACK 21 AUDIO
    TITLE "0:"
    INDEX 01 00:21:02
  TRACK 22 AUDIO
    TITLE "7:cjc115_5092"
    INDEX 01 00:21:13
  TRACK 23 AUDIO
    TITLE "0:"
    INDEX 01 00:22:60
  TRACK 24 AUDIO
    TITLE "6:cjc115_5093"
    INDEX 01 00:23:67
  TRACK 25 AUDIO
    TITLE "0:"
    INDEX 01 00:25:33
  TRACK 26 AUDIO
    TITLE "7:cjc115_5094"
    INDEX 01 00:25:35
  TRACK 27 AUDIO
    TITLE "0:"
    INDEX 01 00:28:74
  TRACK 28 AUDIO
    TITLE "6:cjc115_5095"
    INDEX 01 00:30:03
  TRACK 29 AUDIO
    TITLE "0:"
    INDEX 01 00:31:53
  TRACK 30 AUDIO
    TITLE "7:cjc115_5096"
    INDEX 01 00:31:61
  TRACK 31 AUDIO
    TITLE "0:"
    INDEX 01 00:33:48
  TRACK 32 AUDIO
    TITLE "6:cjc115_5097"
    INDEX 01 00:34:49
  TRACK 33 AUDIO
    TITLE "0:"
    INDEX 01 00:36:07
  TRACK 34 AUDIO
    TITLE "7:cjc115_5098"
    INDEX 01 00:36:13
  TRACK 35 AUDIO
    TITLE "0:"
    INDEX 01 00:37:48
  TRACK 36 AUDIO
    TITLE "6:cjc115_5099"
    INDEX 01 00:38:59
  TRACK 37 AUDIO
    TITLE "0:"
    INDEX 01 00:40:26
  TRACK 38 AUDIO
    TITLE "7:cjc115_5100"
    INDEX 01 00:40:32
  TRACK 39 AUDIO
    TITLE "0:"
    INDEX 01 00:41:65
  TRACK 40 AUDIO
    TITLE "6:cjc115_5101"
    INDEX 01 00:42:74
  TRACK 41 AUDIO
    TITLE "0:"
    INDEX 01 00:44:38
  TRACK 42 AUDIO
    TITLE "7:cjc115_5102"
    INDEX 01 00:44:44
  TRACK 43 AUDIO
    TITLE "0:"
    INDEX 01 00:46:19
  TRACK 44 AUDIO
    TITLE "6:cjc115_5103"
    INDEX 01 00:47:27
  TRACK 45 AUDIO
    TITLE "0:"
    INDEX 01 00:49:02
  TRACK 46 AUDIO
    TITLE "7:cjc115_5104"
    INDEX 01 00:49:12
  TRACK 47 AUDIO
    TITLE "0:"
    INDEX 01 00:50:46
  TRACK 48 AUDIO
    TITLE "6:cjc115_5105"
    INDEX 01 00:51:60
  TRACK 49 AUDIO
    TITLE "0:"
    INDEX 01 00:53:33
  TRACK 50 AUDIO
    TITLE "7:cjc115_5106"
    INDEX 01 00:53:37
  TRACK 51 AUDIO
    TITLE "0:"
    INDEX 01 00:55:14
  TRACK 52 AUDIO
    TITLE "6:cjc115_5107"
    INDEX 01 00:56:24
  TRACK 53 AUDIO
    TITLE "0:"
    INDEX 01 00:57:48
  TRACK 54 AUDIO
    TITLE "7:cjc115_5108"
    INDEX 01 00:57:54
  TRACK 55 AUDIO
    TITLE "0:"
    INDEX 01 01:00:66
  TRACK 56 AUDIO
    TITLE "6:cjc115_5109"
    INDEX 01 01:02:01
  TRACK 57 AUDIO
    TITLE "0:"
    INDEX 01 01:03:29
  TRACK 58 AUDIO
    TITLE "7:cjc115_5110"
    INDEX 01 01:03:37
  TRACK 59 AUDIO
    TITLE "0:"
    INDEX 01 01:05:21
  TRACK 60 AUDIO
    TITLE "6:cjc115_5111"
    INDEX 01 01:06:30
  TRACK 61 AUDIO
    TITLE "0:"
    INDEX 01 01:07:74
  TRACK 62 AUDIO
    TITLE "7:cjc115_5112"
    INDEX 01 01:08:09
  TRACK 63 AUDIO
    TITLE "0:"
    INDEX 01 01:09:18
  TRACK 64 AUDIO
    TITLE "6:cjc115_5113"
    INDEX 01 01:10:30
  TRACK 65 AUDIO
    TITLE "0:"
    INDEX 01 01:11:56
  TRACK 66 AUDIO
    TITLE "7:cjc115_5114"
    INDEX 01 01:11:64
  TRACK 67 AUDIO
    TITLE "0:"
    INDEX 01 01:13:14
  TRACK 68 AUDIO
    TITLE "6:cjc115_5115"
    INDEX 01 01:14:23
  TRACK 69 AUDIO
    TITLE "0:"
    INDEX 01 01:15:68
  TRACK 70 AUDIO
    TITLE "7:cjc115_5116"
    INDEX 01 01:16:01
  TRACK 71 AUDIO
    TITLE "0:"
    INDEX 01 01:17:41
  TRACK 72 AUDIO
    TITLE "6:cjc115_5117"
    INDEX 01 01:18:49
  TRACK 73 AUDIO
    TITLE "0:"
    INDEX 01 01:20:04
  TRACK 74 AUDIO
    TITLE "7:cjc115_5118"
    INDEX 01 01:20:14
  TRACK 75 AUDIO
    TITLE "0:"
    INDEX 01 01:22:37
  TRACK 76 AUDIO
    TITLE "6:cjc115_5119"
    INDEX 01 01:23:46
  TRACK 77 AUDIO
    TITLE "0:"
    INDEX 01 01:25:08
  TRACK 78 AUDIO
    TITLE "7:cjc115_5120"
    INDEX 01 01:25:19
  TRACK 79 AUDIO
    TITLE "0:"
    INDEX 01 01:28:10
  TRACK 80 AUDIO
    TITLE "6:cjc115_5121"
    INDEX 01 01:29:17
  TRACK 81 AUDIO
    TITLE "0:"
    INDEX 01 01:30:44
  TRACK 82 AUDIO
    TITLE "7:cjc115_5122"
    INDEX 01 01:30:52
  TRACK 83 AUDIO
    TITLE "0:"
    INDEX 01 01:32:68
  TRACK 84 AUDIO
    TITLE "6:cjc115_5123"
    INDEX 01 01:34:05
  TRACK 85 AUDIO
    TITLE "0:"
    INDEX 01 01:35:47
  TRACK 86 AUDIO
    TITLE "7:cjc115_5124"
    INDEX 01 01:35:57
  TRACK 87 AUDIO
    TITLE "0:"
    INDEX 01 01:38:02
  TRACK 88 AUDIO
    TITLE "6:cjc115_5125"
    INDEX 01 01:39:10
  TRACK 89 AUDIO
    TITLE "0:"
    INDEX 01 01:40:58
  TRACK 90 AUDIO
    TITLE "7:cjc115_5126"
    INDEX 01 01:40:66
  TRACK 91 AUDIO
    TITLE "0:"
    INDEX 01 01:43:35
  TRACK 92 AUDIO
    TITLE "6:cjc115_5127"
    INDEX 01 01:44:46
  TRACK 93 AUDIO
    TITLE "0:"
    INDEX 01 01:45:69
  TRACK 94 AUDIO
    TITLE "7:cjc115_5128"
    INDEX 01 01:45:71
  TRACK 95 AUDIO
    TITLE "0:"
    INDEX 01 01:47:23
  TRACK 96 AUDIO
    TITLE "6:cjc115_5129"
    INDEX 01 01:48:32
  TRACK 97 AUDIO
    TITLE "0:"
    INDEX 01 01:49:55
  TRACK 98 AUDIO
    TITLE "7:cjc115_5130"
    INDEX 01 01:49:65
  TRACK 99 AUDIO
    TITLE "0:"
    INDEX 01 01:51:68
  TRACK 100 AUDIO
    TITLE "6:cjc115_5131"
    INDEX 01 01:53:04
  TRACK 101 AUDIO
    TITLE "0:"
    INDEX 01 01:54:33
  TRACK 102 AUDIO
    TITLE "7:cjc115_5132"
    INDEX 01 01:54:44
  TRACK 103 AUDIO
    TITLE "0:"
    INDEX 01 01:55:71
  TRACK 104 AUDIO
    TITLE "6:cjc115_5133"
    INDEX 01 01:57:04
  TRACK 105 AUDIO
    TITLE "0:"
    INDEX 01 01:58:36
  TRACK 106 AUDIO
    TITLE "7:cjc115_5134"
    INDEX 01 01:58:44
  TRACK 107 AUDIO
    TITLE "0:"
    INDEX 01 02:01:27
  TRACK 108 AUDIO
    TITLE "6:cjc115_5135"
    INDEX 01 02:02:36
  TRACK 109 AUDIO
    TITLE "0:"
    INDEX 01 02:04:02
  TRACK 110 AUDIO
    TITLE "7:cjc115_5136"
    INDEX 01 02:04:13
  TRACK 111 AUDIO
    TITLE "0:"
    INDEX 01 02:06:67
  TRACK 112 AUDIO
    TITLE "6:cjc115_5137"
    INDEX 01 02:08:00
  TRACK 113 AUDIO
    TITLE "0:"
    INDEX 01 02:09:21
  TRACK 114 AUDIO
    TITLE "7:cjc115_5138"
    INDEX 01 02:09:24
  TRACK 115 AUDIO
    TITLE "0:"
    INDEX 01 02:12:01
  TRACK 116 AUDIO
    TITLE "6:cjc115_5139"
    INDEX 01 02:13:09
  TRACK 117 AUDIO
    TITLE "0:"
    INDEX 01 02:14:35
  TRACK 118 AUDIO
    TITLE "7:cjc115_5140"
    INDEX 01 02:14:43
  TRACK 119 AUDIO
    TITLE "0:"
    INDEX 01 02:17:26
  TRACK 120 AUDIO
    TITLE "6:cjc115_5141"
    INDEX 01 02:18:33
  TRACK 121 AUDIO
    TITLE "0:"
    INDEX 01 02:19:66
  TRACK 122 AUDIO
    TITLE "7:cjc115_5142"
    INDEX 01 02:19:72
  TRACK 123 AUDIO
    TITLE "0:"
    INDEX 01 02:22:41
  TRACK 124 AUDIO
    TITLE "6:cjc115_5143"
    INDEX 01 02:23:52
  TRACK 125 AUDIO
    TITLE "0:"
    INDEX 01 02:25:08
  TRACK 126 AUDIO
    TITLE "7:cjc115_5144"
    INDEX 01 02:25:20
  TRACK 127 AUDIO
    TITLE "0:"
    INDEX 01 02:27:40
  TRACK 128 AUDIO
    TITLE "6:cjc115_5145"
    INDEX 01 02:28:49
  TRACK 129 AUDIO
    TITLE "0:"
    INDEX 01 02:30:11
  TRACK 130 AUDIO
    TITLE "7:cjc115_5146"
    INDEX 01 02:30:17
  TRACK 131 AUDIO
    TITLE "0:"
    INDEX 01 02:32:69
  TRACK 132 AUDIO
    TITLE "6:cjc115_5147"
    INDEX 01 02:34:07
  TRACK 133 AUDIO
    TITLE "0:"
    INDEX 01 02:35:41
  TRACK 134 AUDIO
    TITLE "7:cjc115_5148"
    INDEX 01 02:35:53
  TRACK 135 AUDIO
    TITLE "0:"
    INDEX 01 02:38:10
  TRACK 136 AUDIO
    TITLE "6:cjc115_5149"
    INDEX 01 02:39:20
  TRACK 137 AUDIO
    TITLE "0:"
    INDEX 01 02:40:58
  TRACK 138 AUDIO
    TITLE "7:cjc115_5150"
    INDEX 01 02:40:66
  TRACK 139 AUDIO
    TITLE "0:"
    INDEX 01 02:42:34
  TRACK 140 AUDIO
    TITLE "6:cjc115_5151"
    INDEX 01 02:43:45
  TRACK 141 AUDIO
    TITLE "0:"
    INDEX 01 02:45:09
  TRACK 142 AUDIO
    TITLE "7:cjc115_5152"
    INDEX 01 02:45:18
  TRACK 143 AUDIO
    TITLE "0:"
    INDEX 01 02:46:35
  TRACK 144 AUDIO
    TITLE "6:cjc115_5153"
    INDEX 01 02:47:47
  TRACK 145 AUDIO
    TITLE "0:"
    INDEX 01 02:49:06
  TRACK 146 AUDIO
    TITLE "7:cjc115_5154"
    INDEX 01 02:49:14
  TRACK 147 AUDIO
    TITLE "0:"
    INDEX 01 02:51:70
  TRACK 148 AUDIO
    TITLE "6:cjc115_5155"
    INDEX 01 02:53:06
  TRACK 149 AUDIO
    TITLE "0:"
    INDEX 01 02:54:66
  TRACK 150 AUDIO
    TITLE "7:cjc115_5156"
    INDEX 01 02:54:74
  TRACK 151 AUDIO
    TITLE "0:"
    INDEX 01 02:57:51
  TRACK 152 AUDIO
    TITLE "6:cjc115_5157"
    INDEX 01 02:58:62
  TRACK 153 AUDIO
    TITLE "0:"
    INDEX 01 03:00:18
  TRACK 154 AUDIO
    TITLE "7:cjc115_5158"
    INDEX 01 03:00:30
  TRACK 155 AUDIO
    TITLE "0:"
    INDEX 01 03:03:14
  TRACK 156 AUDIO
    TITLE "6:cjc115_5159"
    INDEX 01 03:04:24
  TRACK 157 AUDIO
    TITLE "0:"
    INDEX 01 03:05:60
  TRACK 158 AUDIO
    TITLE "7:cjc115_5160"
    INDEX 01 03:05:68
  TRACK 159 AUDIO
    TITLE "0:"
    INDEX 01 03:09:11
  TRACK 160 AUDIO
    TITLE "6:cjc115_5161"
    INDEX 01 03:10:22
  TRACK 161 AUDIO
    TITLE "0:"
    INDEX 01 03:11:57
  TRACK 162 AUDIO
    TITLE "7:cjc115_5162"
    INDEX 01 03:12:05
  TRACK 163 AUDIO
    TITLE "0:"
    INDEX 01 03:15:41
  TRACK 164 AUDIO
    TITLE "6:cjc115_5163"
    INDEX 01 03:16:48
  TRACK 165 AUDIO
    TITLE "0:"
    INDEX 01 03:18:02
  TRACK 166 AUDIO
    TITLE "7:cjc115_5164"
    INDEX 01 03:18:10
  TRACK 167 AUDIO
    TITLE "0:"
    INDEX 01 03:19:37
  TRACK 168 AUDIO
    TITLE "6:cjc115_5165"
    INDEX 01 03:20:50
  TRACK 169 AUDIO
    TITLE "0:"
    INDEX 01 03:22:12
  TRACK 170 AUDIO
    TITLE "7:cjc115_5166"
    INDEX 01 03:22:19
  TRACK 171 AUDIO
    TITLE "0:"
    INDEX 01 03:23:44
  TRACK 172 AUDIO
    TITLE "6:cjc115_5167"
    INDEX 01 03:24:54
  TRACK 173 AUDIO
    TITLE "0:"
    INDEX 01 03:26:19
  TRACK 174 AUDIO
    TITLE "7:cjc115_5168"
    INDEX 01 03:26:29
  TRACK 175 AUDIO
    TITLE "0:"
    INDEX 01 03:27:54
  TRACK 176 AUDIO
    TITLE "6:cjc115_5169"
    INDEX 01 03:28:63
  TRACK 177 AUDIO
    TITLE "0:"
    INDEX 01 03:30:27
  TRACK 178 AUDIO
    TITLE "7:cjc115_5170"
    INDEX 01 03:30:37
  TRACK 179 AUDIO
    TITLE "0:"
    INDEX 01 03:32:37
  TRACK 180 AUDIO
    TITLE "6:cjc115_5171"
    INDEX 01 03:33:47
  TRACK 181 AUDIO
    TITLE "0:"
    INDEX 01 03:35:12
  TRACK 182 AUDIO
    TITLE "7:cjc115_5172"
    INDEX 01 03:35:22
  TRACK 183 AUDIO
    TITLE "0:"
    INDEX 01 03:36:47
  TRACK 184 AUDIO
    TITLE "6:cjc115_5173"
    INDEX 01 03:37:56
  TRACK 185 AUDIO
    TITLE "0:"
    INDEX 01 03:38:73
  TRACK 186 AUDIO
    TITLE "7:cjc115_5174"
    INDEX 01 03:39:06
  TRACK 187 AUDIO
    TITLE "0:"
    INDEX 01 03:41:54
  TRACK 188 AUDIO
    TITLE "6:cjc115_5175"
    INDEX 01 03:42:63
  TRACK 189 AUDIO
    TITLE "0:"
    INDEX 01 03:44:27
  TRACK 190 AUDIO
    TITLE "7:cjc115_5176"
    INDEX 01 03:44:37
  TRACK 191 AUDIO
    TITLE "0:"
    INDEX 01 03:47:33
  TRACK 192 AUDIO
    TITLE "6:cjc115_5177"
    INDEX 01 03:48:42
  TRACK 193 AUDIO
    TITLE "0:"
    INDEX 01 03:50:00
  TRACK 194 AUDIO
    TITLE "7:cjc115_5178"
    INDEX 01 03:50:08
  TRACK 195 AUDIO
    TITLE "0:"
    INDEX 01 03:51:33
